<svg preserveAspectRatio="none" width="100%" height="100%" overflow="visible" style="display: block;" viewBox="0 0 132 44" fill="none" xmlns="http://www.w3.org/2000/svg">
<g id="Vector">
<path d="M129.045 5.65564C128.928 5.63596 128.801 5.63412 128.69 5.67121C128.333 5.79298 127.264 7.42681 127.043 7.8379C126.497 8.85327 124.898 12.6309 124.702 13.6577C124.388 15.2856 125.28 14.706 126.257 14.8846C126.937 15.0081 126.647 16.3879 126.361 16.8246C125.557 18.0644 123.113 17.2317 122.328 18.0342C121.879 18.4979 120.647 21.4973 120.358 22.2701C119.17 25.4576 118.211 28.7861 116.982 31.9513C115.753 35.1164 113.11 38.8656 109.331 38.097C107.781 37.7821 105.45 34.7602 107.335 33.5568C107.52 33.4372 108.908 32.8889 109.089 32.8957C110.043 32.9327 109.166 34.6316 109.466 34.9191C110.008 35.4309 110.996 34.9406 111.438 34.4796C113.251 32.578 115.599 26.4148 116.415 23.7844C116.513 23.4708 117.02 22.1703 116.621 22.0572C115.877 22.2701 115.15 21.9464 114.542 22.5209C113.803 23.2172 112.993 25.5258 112.255 26.4931C110.775 28.4313 105.256 30.6154 103.201 28.8727C101.872 27.7456 101.962 25.6265 102.146 24.0582C102.195 23.6356 102.593 22.4088 102.421 22.1506L102.209 22.0526C101.529 22.2654 100.775 21.9807 100.208 22.5164C99.5976 23.0908 98.6888 25.4558 98.078 26.321C96.6334 28.3686 91.7781 30.2364 89.4114 29.2055C88.3957 28.7619 87.8135 27.3693 87.7191 26.3251C87.6187 25.2117 87.9987 24.1539 87.826 23.0904C87.732 22.9572 87.1323 23.0511 86.9084 23.0012C86.3505 22.8794 85.5671 22.1766 85.1594 22.7273C84.2404 23.967 83.5813 26.3251 82.4979 27.4678C81.3394 28.6886 79.2252 29.2476 77.5942 29.3323C75.8581 29.4216 74.5061 29.4175 73.8658 27.5923C73.7784 27.34 73.9097 26.8195 73.5394 26.8241C72.2307 27.7616 71.6545 29.1523 69.9036 29.4065C68.2702 29.6458 67.1984 28.9798 66.3352 27.6861C66.2283 27.525 66.0795 26.8593 65.7774 26.9376C65.6917 26.9591 64.7843 27.9842 64.5102 28.1773C63.1878 29.1061 60.4909 30.2547 58.9344 29.4976C55.073 27.6202 59.7446 21.8722 60.9477 19.5379C61.1997 19.0486 61.7382 18.0786 61.6724 17.5558C61.6065 17.0339 61.1288 16.7771 60.6433 16.8425C60.2951 16.8883 58.6359 18.296 58.2817 18.6306C55.856 20.9237 55.552 24.6849 54.488 27.6783C53.9344 29.2357 53.1827 29.9146 51.4475 29.7599C50.7754 29.7017 49.3701 29.4009 49.5368 28.5262L53.9413 18.5556C54.1841 17.661 54.0269 16.7587 52.9325 17.2285C51.6782 17.7677 49.6423 21.8145 49.0531 23.1504C48.1614 25.1697 47.4705 29.1419 44.8826 29.4353C44.3594 29.4939 42.1904 29.4765 42.002 28.929C41.914 28.6699 42.1438 27.8522 41.8182 27.9132C41.5686 27.9613 40.1042 29.0205 39.5417 29.238C38.3731 29.689 37.5127 29.6125 36.5229 28.8291C35.9011 28.3376 35.6496 27.7305 35.1461 27.1588C33.5008 28.8164 30.7467 30.7377 28.3671 29.3232C26.3335 28.1137 28.21 25.4361 28.7982 23.8934C29.9654 20.8344 30.6218 17.2083 32.1189 14.2662C32.7209 13.0823 34.0738 12.4497 35.3722 12.489C35.8076 12.5018 37.0006 12.6693 36.9613 13.194C36.9218 13.7186 36.1097 15.65 35.8273 16.209C34.6758 18.485 33.6403 20.249 32.9576 22.8074C32.6951 23.793 32.5593 24.9939 33.4196 25.7291C33.8333 25.8467 34.2359 25.3591 34.4925 25.0937C35.7794 23.7551 36.8523 21.2707 37.551 19.5503C38.0959 18.2035 39.1774 14.349 40.1798 13.5803C40.9019 13.026 42.6556 13.0233 43.5441 13.1715C44.7698 13.3757 44.4303 14.0849 43.9932 14.8686C42.4934 17.5489 39.2631 21.7084 39.6938 24.9243C39.7095 25.0392 39.9591 25.8334 40.0093 25.914C40.3248 26.4231 41.1066 26.1296 41.515 25.8838C41.9246 25.6385 44.5298 21.7766 44.9149 21.1087C45.8652 19.468 46.2434 17.3777 47.0453 15.6221C47.7146 14.1557 48.0826 13.0855 49.909 13.0328C50.2729 13.0219 51.6101 13.1263 51.8906 13.2485C53.0066 13.736 52.1876 14.8017 52.0264 15.4678C52.0048 15.5543 51.8952 15.764 52.1006 15.753C52.2051 15.7461 53.3374 14.4895 53.576 14.2867C54.9832 13.0855 57.0744 11.6975 58.547 13.5904C58.9151 14.0624 58.9851 14.5801 59.0487 15.1657C59.0703 15.3684 58.8672 15.8706 59.1559 15.971C59.9703 14.7784 61.3273 13.7887 62.6345 13.1798C63.7507 12.6598 64.9487 12.2834 65.828 13.4211C66.6185 14.4392 66.3273 15.8514 65.8806 16.9479C65.0602 18.9685 62.5402 22.65 62.2449 24.5233C62.0633 25.6718 62.6544 26.8731 63.8644 26.0221C65.7069 24.7275 68.0496 19.2437 68.8382 17.0586C69.3149 15.7338 69.4034 13.8495 70.8018 13.145C71.2072 12.9408 73.5956 12.2487 73.9778 12.2702C74.192 12.283 74.5711 12.4789 74.6628 12.6831C75.1621 13.7923 74.2031 16.16 73.7439 17.2605C73.0262 18.9791 71.0271 22.129 70.6945 23.6805C70.5762 24.2307 70.449 25.4319 71.2394 25.4205C73.2426 25.3903 73.9018 22.0311 74.5011 20.6188C75.0027 19.4377 77.3049 14.9428 78.0796 14.181C78.8986 13.3757 80.8774 13.6239 81.9106 13.9585L82.0092 14.7157C81.3413 17.3479 78.4435 21.3705 78.3975 23.9506C78.3758 25.2512 79.0755 25.6324 80.2142 24.9861C81.8056 24.0856 83.515 21.0835 83.6532 19.2798C83.8241 17.0604 82.3418 16.0167 84.2045 13.7451C85.0147 12.7568 86.4962 12.0267 87.4837 13.2274C88.6827 14.6869 87.3152 17.5201 86.6675 18.9946C86.5707 19.9564 88.4736 19.9518 88.9619 19.5563C89.2557 19.3191 89.9291 17.6066 90.2359 17.1287C91.142 15.7064 94.9228 12.8209 96.534 12.5211C97.3916 12.3595 98.8256 12.2404 99.592 12.6886C100.358 13.1368 101.282 14.5728 101.534 15.4321C101.874 16.5981 101.805 17.4331 101.567 18.6041C101.473 19.061 100.796 20.1441 101.757 20.2164C101.92 20.2274 102.786 20.1212 102.937 20.075C103.348 19.9487 103.474 19.1855 103.655 18.8325C104.461 17.2683 104.967 16.3394 106.353 15.2151C108.254 13.6765 110.348 12.1736 112.919 12.3846C114.729 12.5348 116.173 15.3868 116.143 16.9991C116.132 17.5993 115.412 19.771 115.61 20.0837C116.064 20.3163 117.612 20.1464 117.86 19.7445C117.941 19.1246 119.045 17.5191 118.117 17.2161C117.764 17.1012 116.862 17.1355 116.576 16.8984C116.204 16.5876 116.691 15.7086 116.956 15.4252C117.991 14.3161 119.337 15.5448 120.208 13.6587C121.602 10.6327 121.941 7.54812 124.614 5.21983C126.615 3.47704 130.137 1.44356 131.614 4.89801C132.209 6.29059 132.055 7.2675 131.566 8.64635C130.899 10.5283 130.197 11.8664 128.027 10.7412C126.075 9.72993 127.203 9.32479 128.059 8.20414C128.622 7.46847 129.387 6.63988 129.04 5.66159L129.045 5.65472L129.044 5.65656L129.045 5.65564ZM97.3014 14.9065C97.2046 14.9262 96.4539 15.2216 96.358 15.2723C96.0411 15.444 95.4519 15.9617 95.4718 16.3386C95.5031 16.9286 97.2226 19.0756 97.8232 19.0189C98.8108 18.1143 99.6381 16.8265 98.8495 15.4967C98.4911 14.8923 97.9831 14.766 97.3041 14.9065H97.3014ZM112.296 18.9882C112.367 18.9489 113.149 17.8084 113.211 17.6721C113.557 16.9304 113.58 16.2167 113.176 15.4925C112.401 14.1027 109.748 15.4248 109.798 16.3367C109.806 16.5125 110.061 16.9977 110.166 17.1762C110.408 17.5942 111.777 19.2848 112.296 18.9858V18.9886V18.9882ZM95.1894 25.6801C96.4239 24.764 97.2512 23.1046 97.7523 21.6855C97.6998 21.4049 95.8476 20.8331 95.4364 20.6192C94.7799 20.2778 94.2493 19.7427 93.5671 19.4533C93.2166 19.5357 92.4156 21.82 92.3285 22.2439C91.9761 23.9428 91.7422 26.6341 94.3161 26.1731C94.6242 26.1164 94.9656 25.8472 95.1876 25.6815L95.1894 25.6787V25.6801ZM106.876 25.8206C107.432 26.3737 108.59 26.2559 109.236 25.8883C110.544 25.1468 111.65 23.0185 112.05 21.6154C111.936 21.3956 110.252 20.867 109.836 20.6541C109.309 20.3816 108.545 19.6841 108.124 19.5252C108.013 19.484 107.967 19.4016 107.829 19.4881C107.667 19.5902 106.993 21.0198 106.901 21.2877C106.565 22.2604 106.25 24.2555 106.548 25.2214C106.568 25.2851 106.841 25.7872 106.875 25.8197V25.8224L106.878 25.8206H106.876Z" fill="#661D1D"/>
<path d="M14.821 40.0361C11.4649 43.5716 6.02596 45.764 1.82925 42.1351C0.415136 40.9128 -0.0666737 37.8539 1.15029 36.3963C2.60125 34.6577 3.01764 37.6557 3.60172 38.2865C4.77722 39.5568 6.68788 39.6352 8.18075 38.926C9.73719 38.1871 12.2346 34.8293 13.3319 33.3718C14.9058 31.2787 16.6023 28.9075 17.6792 26.5279C17.933 25.9665 18.8893 23.7628 18.9178 23.3032C18.9293 23.1334 18.9335 23.1145 18.7511 23.1402C17.6023 24.004 16.5493 24.8588 15.2881 25.5665C12.8239 26.9476 10.4636 27.8793 7.73579 26.4738C4.76939 24.9466 5.7284 21.8199 6.69847 19.3164C8.07112 15.7726 9.99928 12.2156 11.2628 8.64353C11.7533 7.25782 12.5258 5.26966 10.9874 4.24056C8.1462 2.34349 3.20512 7.40843 4.71596 10.4687C5.17381 11.3957 7.80212 12.8158 6.00109 13.9515C4.02457 15.1981 1.20971 13.8994 0.305048 11.9176C-0.981928 9.10681 2.08443 4.44427 4.26317 2.67355C6.99695 0.45284 14.0113 -1.47306 15.681 2.82966C17.185 6.70664 14.9215 9.82233 13.4723 13.231C12.5902 15.3085 11.3337 18.0153 10.8482 20.182C10.3618 22.3487 11.1135 23.3998 13.4705 23.0015C18.3891 22.1729 22.3343 13.0437 24.5531 9.13703C25.3592 7.72064 27.4969 4.98629 27.9261 3.68983C28.2873 2.5994 27.5411 1.96399 27.6521 1.13769C27.7548 0.38051 28.9045 -0.00677704 29.5696 8.97388e-05C30.5241 0.00878766 34.0699 0.226693 34.7751 0.594294C34.9659 0.694549 35.1847 0.798467 35.2105 1.03789C35.2694 1.65178 32.8332 4.62144 32.3385 5.35206C29.32 9.80951 27.4987 14.6657 25.2942 19.537C24.705 20.8375 23.963 22.0841 23.3748 23.3874C20.7281 29.2398 19.3881 35.2184 14.8178 40.0343L14.8206 40.0361H14.821Z" fill="#661D1D"/>
</g>
</svg>
